<!--?xml version="1.0" encoding="utf-8"?-->
<!-- Generator: Adobe Illustrator 18.1.1, SVG Export Plug-In . SVG Version: 6.00 Build 0)  -->

<svg version="1.1" id="_x32_" xmlns="http://www.w3.org/2000/svg" xmlns:xlink="http://www.w3.org/1999/xlink" x="0px" y="0px" viewBox="0 0 512 512" style="width: 256px; height: 256px; opacity: 1;" xml:space="preserve">
<style type="text/css">
	.st0{fill:#4B4B4B;}
</style>
<g>
	<path class="st0" d="M207.226,105.383c-31.143,14.344-55.412,40.843-66.796,73.516c-2.867,8.231,1.49,17.231,9.72,20.098
		c8.23,2.857,17.23-1.49,20.097-9.72c8.508-24.475,26.817-44.48,50.172-55.228c7.922-3.647,11.384-13.018,7.737-20.929
		C224.508,105.199,215.137,101.736,207.226,105.383z" style="fill: rgb(109, 40, 217);"></path>
	<path class="st0" d="M491.806,360.269c-3.545-14.519,10.49-82.003-9.227-88.229c-7.778-2.456-15.062-4.295-21.793-5.692
		c3.894-16.04,6.196-32.705,6.196-49.946C466.961,99.865,372.536,5.441,256,5.421C139.464,5.441,45.039,99.865,45.018,216.402
		c0,17.241,2.302,33.906,6.196,49.946c-6.731,1.397-14.015,3.236-21.793,5.692c-19.717,6.226-5.681,73.71-9.227,88.229
		c-6.143,25.204-30.361,112.91-15.381,122.886C66.317,524.111,194.865,498.907,256,498.907s189.683,25.204,251.188-15.752
		C522.168,473.179,497.951,385.473,491.806,360.269z M367.984,328.386c-15.34,15.331-33.793,27.372-54.271,35.397
		c-20.18,3.935-38.417,8.087-48.754,10.542c-2.98,0.164-5.928,0.451-8.96,0.451c-3.031,0-5.98-0.287-8.96-0.451
		c-10.336-2.456-28.574-6.608-48.754-10.542c-20.478-8.025-38.931-20.066-54.272-35.397c-28.708-28.738-46.38-68.162-46.39-111.984
		c0.01-43.822,17.683-83.246,46.39-111.985c28.739-28.708,68.163-46.38,111.985-46.39c43.822,0.01,83.246,17.682,111.984,46.39
		c28.708,28.739,46.38,68.163,46.391,111.985C414.365,260.224,396.692,299.648,367.984,328.386z" style="fill: rgb(109, 40, 217);"></path>
</g>
</svg>
